<svg width="24" height="24" viewBox="0 0 24 24" fill="none" xmlns="http://www.w3.org/2000/svg">
<path d="M21.5086 3.48751L20.5148 2.49376C20.4773 2.45626 20.4305 2.43985 20.3812 2.43985C20.332 2.43985 20.2851 2.4586 20.2476 2.49376L18.4641 4.27735C17.6887 3.75201 16.7733 3.47191 15.8367 3.47344C14.6367 3.47344 13.4367 3.93047 12.5203 4.84688L10.132 7.23516C10.0971 7.2704 10.0776 7.31799 10.0776 7.36758C10.0776 7.41718 10.0971 7.46477 10.132 7.50001L16.5 13.868C16.5375 13.9055 16.5844 13.9219 16.6336 13.9219C16.6805 13.9219 16.7297 13.9031 16.7672 13.868L19.1555 11.4797C20.7703 9.86251 20.9601 7.36173 19.725 5.53829L21.5086 3.75469C21.5812 3.67969 21.5812 3.56016 21.5086 3.48751ZM18.0258 10.3524L16.6336 11.7445L12.2555 7.36641L13.6476 5.97422C14.2312 5.39063 15.0094 5.06719 15.8367 5.06719C16.6641 5.06719 17.4398 5.38829 18.0258 5.97422C18.6094 6.55782 18.9328 7.33594 18.9328 8.16329C18.9328 8.99063 18.6094 9.76641 18.0258 10.3524ZM13.568 12.8133C13.5327 12.7784 13.4851 12.7588 13.4355 12.7588C13.3859 12.7588 13.3384 12.7784 13.3031 12.8133L11.7422 14.3742L9.62577 12.2578L11.1891 10.6945C11.2617 10.6219 11.2617 10.5023 11.1891 10.4297L10.3359 9.57657C10.3007 9.54167 10.2531 9.5221 10.2035 9.5221C10.1539 9.5221 10.1063 9.54167 10.0711 9.57657L8.5078 11.1398L7.49999 10.132C7.48249 10.1145 7.46164 10.1007 7.43869 10.0915C7.41573 10.0822 7.39114 10.0777 7.36639 10.0781C7.31952 10.0781 7.2703 10.0969 7.2328 10.132L4.84686 12.5203C3.23202 14.1375 3.04218 16.6383 4.27733 18.4617L2.49374 20.2453C2.45884 20.2806 2.43927 20.3281 2.43927 20.3777C2.43927 20.4273 2.45884 20.4749 2.49374 20.5102L3.48749 21.5039C3.52499 21.5414 3.57186 21.5578 3.62108 21.5578C3.6703 21.5578 3.71718 21.5391 3.75468 21.5039L5.53827 19.7203C6.32811 20.257 7.24686 20.5242 8.16561 20.5242C9.36561 20.5242 10.5656 20.0672 11.482 19.1508L13.8703 16.7625C13.943 16.6899 13.943 16.5703 13.8703 16.4977L12.8625 15.4899L14.4258 13.9266C14.4984 13.8539 14.4984 13.7344 14.4258 13.6617L13.568 12.8133ZM10.3523 18.0258C10.0655 18.3141 9.72432 18.5427 9.34859 18.6984C8.97285 18.8541 8.56998 18.9338 8.16327 18.9328C7.33593 18.9328 6.56015 18.6117 5.97421 18.0258C5.68588 17.7389 5.45727 17.3978 5.30159 17.022C5.1459 16.6463 5.06623 16.2434 5.06718 15.8367C5.06718 15.0094 5.38827 14.2336 5.97421 13.6477L7.36639 12.2555L11.7445 16.6336L10.3523 18.0258Z" fill="currentColor"/>
</svg>
