<svg width="24" height="24" viewBox="0 0 24 24" fill="none" xmlns="http://www.w3.org/2000/svg">
<path d="M12 4C7.0909 4 2 5.36001 2 8.16002V15.84C2 18.64 7.0909 20 12 20C16.9091 20 22 18.64 22 15.84V8.15998C22 5.35997 16.9091 4 12 4ZM20.1818 15.84C20.1818 16.784 16.2425 18.08 12 18.08C7.75754 18.08 3.81816 16.784 3.81816 15.84V14.5169C5.73617 15.6188 8.90398 16.16 12 16.16C15.096 16.16 18.2638 15.6188 20.1818 14.5169V15.84ZM20.1818 12C20.1818 12.944 16.2425 14.24 12 14.24C7.75754 14.24 3.81816 12.944 3.81816 12V10.6769C5.73617 11.7788 8.90398 12.32 12 12.32C15.096 12.32 18.2638 11.7788 20.1818 10.6769V12ZM12 10.4C7.75758 10.4 3.81816 9.10398 3.81816 8.15998C3.81816 7.21597 7.75754 5.91998 12 5.91998C16.2425 5.91998 20.1818 7.21597 20.1818 8.15998C20.1818 9.10398 16.2424 10.4 12 10.4Z" fill="currentColor"/>
</svg>
