<svg width="16" height="16" viewBox="0 0 16 16" fill="none" xmlns="http://www.w3.org/2000/svg">
<path fill-rule="evenodd" clip-rule="evenodd" d="M8.66668 8.55792V9.33325C8.66668 9.70192 8.36868 9.99992 8.00001 9.99992C7.63134 9.99992 7.33334 9.70192 7.33334 9.33325V7.99992C7.33334 7.63125 7.63134 7.33325 8.00001 7.33325C8.55134 7.33325 9.00001 6.88459 9.00001 6.33325C9.00001 5.78192 8.55134 5.33325 8.00001 5.33325C7.44868 5.33325 7.00001 5.78192 7.00001 6.33325C7.00001 6.70192 6.70201 6.99992 6.33334 6.99992C5.96468 6.99992 5.66668 6.70192 5.66668 6.33325C5.66668 5.04659 6.71334 3.99992 8.00001 3.99992C9.28668 3.99992 10.3333 5.04659 10.3333 6.33325C10.3333 7.38659 9.62668 8.26859 8.66668 8.55792ZM8.00001 11.9999C7.63134 11.9999 7.33334 11.7019 7.33334 11.3333C7.33334 10.9646 7.63134 10.6666 8.00001 10.6666C8.36868 10.6666 8.66668 10.9646 8.66668 11.3333C8.66668 11.7019 8.36868 11.9999 8.00001 11.9999ZM8.00001 1.33325C4.32401 1.33325 1.33334 4.32392 1.33334 7.99992C1.33334 11.6759 4.32401 14.6666 8.00001 14.6666C11.676 14.6666 14.6667 11.6759 14.6667 7.99992C14.6667 4.32392 11.676 1.33325 8.00001 1.33325Z" fill="white" fill-opacity="0.6"/>
<mask id="mask0_182_435" style="mask-type:luminance" maskUnits="userSpaceOnUse" x="1" y="1" width="14" height="14">
<path fill-rule="evenodd" clip-rule="evenodd" d="M8.66668 8.55792V9.33325C8.66668 9.70192 8.36868 9.99992 8.00001 9.99992C7.63134 9.99992 7.33334 9.70192 7.33334 9.33325V7.99992C7.33334 7.63125 7.63134 7.33325 8.00001 7.33325C8.55134 7.33325 9.00001 6.88459 9.00001 6.33325C9.00001 5.78192 8.55134 5.33325 8.00001 5.33325C7.44868 5.33325 7.00001 5.78192 7.00001 6.33325C7.00001 6.70192 6.70201 6.99992 6.33334 6.99992C5.96468 6.99992 5.66668 6.70192 5.66668 6.33325C5.66668 5.04659 6.71334 3.99992 8.00001 3.99992C9.28668 3.99992 10.3333 5.04659 10.3333 6.33325C10.3333 7.38659 9.62668 8.26859 8.66668 8.55792ZM8.00001 11.9999C7.63134 11.9999 7.33334 11.7019 7.33334 11.3333C7.33334 10.9646 7.63134 10.6666 8.00001 10.6666C8.36868 10.6666 8.66668 10.9646 8.66668 11.3333C8.66668 11.7019 8.36868 11.9999 8.00001 11.9999ZM8.00001 1.33325C4.32401 1.33325 1.33334 4.32392 1.33334 7.99992C1.33334 11.6759 4.32401 14.6666 8.00001 14.6666C11.676 14.6666 14.6667 11.6759 14.6667 7.99992C14.6667 4.32392 11.676 1.33325 8.00001 1.33325Z" fill="white"/>
</mask>
<g mask="url(#mask0_182_435)">
</g>
</svg>
