<svg width="20" height="20" viewBox="0 0 20 20" fill="none" xmlns="http://www.w3.org/2000/svg">
<path d="M9.4275 14.1208C8.645 13.8233 7.83625 13.3771 7.25875 12.7146C6.39725 11.7017 5.9264 10.4142 5.93125 9.08456C5.93125 5.78456 8.25625 3.91331 10.9113 3.91331C12.24 3.91331 13.5675 4.35331 14.4538 5.34331C14.7163 5.60581 14.9288 5.87706 15.0988 6.15331L15.7213 5.91831C16.5838 5.59331 17.445 5.26706 18.3075 4.93456C16.8075 2.23831 13.86 0.833313 10.9113 0.833313C6.70625 0.833313 2.5 3.69331 2.5 9.08331C2.5 14.3871 6.57 17.2421 10.7063 17.3333C11.4313 16.7208 12.2563 15.8896 12.8713 15.2683L13.2975 14.8383C11.8725 14.8383 10.4475 14.5996 9.4275 14.1208Z" fill="white" fill-opacity="0.6"/>
<path d="M13.4375 18.8132L12.7637 18.1607L15.68 15.0032L12.54 12.0632L13.2125 11.4095L17.025 15.0032L13.4375 18.8132Z" fill="white" fill-opacity="0.6" stroke="white" stroke-opacity="0.3" stroke-width="1.196" stroke-miterlimit="10"/>
</svg>
