<svg width="20" height="20" viewBox="0 0 20 20" fill="none" xmlns="http://www.w3.org/2000/svg">
<path d="M8.00782 8.1125L9.92932 10.6912L9.95182 10.7206C10.9838 12.0175 11.0093 12.8081 10.2518 13.4562C9.99415 13.6795 9.85023 13.9771 9.85023 14.2869C9.85023 14.5966 9.99415 14.8943 10.2518 15.1175C10.7873 15.5762 11.6543 15.5762 12.1898 15.1175C13.9868 13.5775 13.9253 11.555 12.2281 9.4125L9.08707 5.19812C8.96327 5.028 8.78757 4.88826 8.57787 4.79314C8.36816 4.69803 8.13195 4.65093 7.8933 4.65664C7.65464 4.66236 7.42207 4.72069 7.21927 4.82569C7.01647 4.93069 6.85069 5.0786 6.73882 5.25437L4.27207 9.01312C3.43167 10.2655 2.99353 11.6776 3.00007 13.1125C3.00007 16.1231 5.75782 18.75 10.1251 18.75C14.4833 18.75 17.2501 15.9394 17.2501 12.8775C17.2501 11.2569 16.7723 9.75625 15.8213 8.3975L11.1601 1.815C11.0698 1.68411 10.9488 1.56972 10.8044 1.47866C10.6599 1.38759 10.4949 1.32172 10.3192 1.28497C10.1435 1.24822 9.96068 1.24134 9.78172 1.26476C9.60277 1.28817 9.4313 1.34139 9.27757 1.42125C8.63107 1.7575 8.42482 2.48 8.81782 3.03375L13.4761 9.61125C14.1661 10.5969 14.5111 11.68 14.5111 12.8775C14.5111 14.7225 12.8581 16.4012 10.1258 16.4012C7.34032 16.4012 5.74132 14.8781 5.74132 13.1125C5.74132 12.0644 6.04432 11.0906 6.65632 10.1719L8.00857 8.1125H8.00782Z" fill="white" fill-opacity="0.6"/>
</svg>
