<svg width="20" height="20" viewBox="0 0 20 20" fill="none" xmlns="http://www.w3.org/2000/svg">
<g clip-path="url(#clip0_186_1074)">
<path fill-rule="evenodd" clip-rule="evenodd" d="M20 10C20 15.5228 15.5228 20 10 20C4.47715 20 0 15.5228 0 10C0 4.47715 4.47715 0 10 0C15.5228 0 20 4.47715 20 10ZM10.3584 7.38254C9.38571 7.7871 7.44178 8.62443 4.52658 9.89454C4.05319 10.0828 3.80521 10.2669 3.78264 10.447C3.74449 10.7513 4.1256 10.8712 4.64456 11.0344C4.71515 11.0566 4.7883 11.0796 4.86328 11.1039C5.37386 11.2699 6.06069 11.4641 6.41774 11.4718C6.74162 11.4788 7.10311 11.3453 7.5022 11.0712C10.226 9.2326 11.632 8.30328 11.7203 8.28324C11.7825 8.26911 11.8688 8.25134 11.9273 8.30331C11.9858 8.35528 11.98 8.4537 11.9738 8.4801C11.9361 8.64105 10.4401 10.0318 9.66594 10.7516C9.42459 10.976 9.2534 11.1351 9.2184 11.1715C9.14 11.2529 9.06011 11.3299 8.98332 11.4039C8.50897 11.8612 8.15326 12.2041 9.00301 12.7641C9.41137 13.0332 9.73814 13.2557 10.0641 13.4777C10.4201 13.7202 10.7752 13.962 11.2347 14.2632C11.3517 14.3399 11.4635 14.4196 11.5724 14.4972C11.9867 14.7926 12.359 15.0579 12.8188 15.0156C13.086 14.991 13.3621 14.7398 13.5022 13.9904C13.8335 12.2194 14.4847 8.38215 14.6352 6.80091C14.6484 6.66238 14.6318 6.48508 14.6185 6.40725C14.6051 6.32942 14.5773 6.21852 14.4761 6.13644C14.3563 6.03922 14.1714 6.01871 14.0886 6.02017C13.7125 6.0268 13.1355 6.22745 10.3584 7.38254Z" fill="white" fill-opacity="0.6"/>
</g>
<defs>
<clipPath id="clip0_186_1074">
<rect width="20" height="20" fill="white"/>
</clipPath>
</defs>
</svg>
