<svg width="20" height="20" viewBox="0 0 20 20" fill="none" xmlns="http://www.w3.org/2000/svg">
<g clip-path="url(#clip0_503_996)">
<path d="M10 20C15.5228 20 20 15.5228 20 10C20 4.47715 15.5228 0 10 0C4.47715 0 0 4.47715 0 10C0 15.5228 4.47715 20 10 20Z" fill="white" fill-opacity="0.6"/>
<path d="M13.695 10.9755C13.5185 11.0855 13.31 11.0995 13.1515 11.0115C12.95 10.8995 12.8395 10.6375 12.8395 10.2725V9.1815C12.8395 8.655 12.628 8.28 12.2745 8.179C11.6755 8.007 11.2245 8.729 11.0555 9L9.999 10.688V8.625C9.987 8.1505 9.8305 7.8665 9.534 7.781C9.337 7.7245 9.043 7.747 8.7575 8.178L6.39 11.923C6.07348 11.3315 5.90824 10.6709 5.909 10C5.909 7.744 7.744 5.909 9.999 5.909C12.254 5.909 14.089 7.744 14.089 10L14.09 10.011V10.022C14.111 10.459 13.9675 10.8065 13.695 10.9755ZM14.998 10.0005V9.9775C14.985 7.2305 12.7475 5 9.9985 5C7.242 5 5 7.243 5 10C5 12.757 7.2425 15 9.999 15C11.264 15 12.471 14.5265 13.3975 13.6665C13.4413 13.626 13.4766 13.5772 13.5015 13.523C13.5264 13.4688 13.5404 13.4102 13.5427 13.3506C13.545 13.291 13.5355 13.2315 13.5148 13.1755C13.4941 13.1196 13.4625 13.0683 13.422 13.0245C13.3815 12.9807 13.3327 12.9454 13.2785 12.9205C13.2243 12.8956 13.1657 12.8816 13.1061 12.8793C13.0465 12.877 12.987 12.8865 12.931 12.9072C12.8751 12.9279 12.8238 12.9595 12.78 13C12.0246 13.7024 11.031 14.0923 9.9995 14.091C9.42493 14.0912 8.85681 13.97 8.33233 13.7353C7.80785 13.5007 7.33883 13.1579 6.956 12.7295L9.091 9.352V10.909C9.091 11.657 9.385 11.899 9.632 11.969C9.879 12.04 10.2565 11.9915 10.653 11.3575L11.827 9.4825C11.8645 9.4215 11.8995 9.3695 11.931 9.3245V10.2725C11.931 10.9715 12.215 11.5305 12.711 11.806C13.157 12.0545 13.7185 12.032 14.176 11.7475C14.731 11.4025 15.0295 10.7665 14.9985 10L14.998 10.0005Z" fill="#242424"/>
</g>
<defs>
<clipPath id="clip0_503_996">
<rect width="20" height="20" fill="white"/>
</clipPath>
</defs>
</svg>
