<svg width="20" height="20" viewBox="0 0 20 20" fill="none" xmlns="http://www.w3.org/2000/svg">
<g clip-path="url(#clip0_186_1049)">
<path d="M20.0957 10.0052C20.1051 11.9926 19.5249 13.9382 18.4285 15.5959C17.3322 17.2536 15.7688 18.5489 13.9362 19.318C12.1036 20.0871 10.084 20.2954 8.13303 19.9166C6.182 19.5378 4.38713 18.589 2.97542 17.1901C1.56371 15.7911 0.598585 14.0049 0.202099 12.0574C-0.194387 10.11 -0.0044155 8.08861 0.747985 6.24908C1.50039 4.40956 2.78141 2.83449 4.42905 1.72308C6.07669 0.611672 8.01693 0.013844 10.0044 0.00522165C12.6685 -0.00633646 15.2281 1.04061 17.1205 2.91586C19.0128 4.7911 20.083 7.34112 20.0957 10.0052Z" fill="white" fill-opacity="0.6"/>
<path d="M14.7543 6.72826C14.0804 6.5326 13.3804 6.25651 12.6739 5.97608C12.5739 5.70591 12.3942 5.47244 12.1587 5.30652C11.6956 4.90434 10.8282 4.91521 10.0782 5.08912C9.28449 4.87296 8.45075 4.84837 7.64564 5.01738C1.21955 6.78695 4.86303 11.1043 2.50433 15.4522C2.83912 16.1652 6.45869 20.3196 11.6935 19.2043C11.6935 19.2043 9.90216 14.9022 13.9435 12.837C17.2239 11.1522 19.5913 8.04347 14.7543 6.72826Z" fill="black"/>
<path d="M15.5543 9.55218C15.5548 9.62915 15.5324 9.7045 15.49 9.76873C15.4476 9.83296 15.3871 9.88318 15.3161 9.91303C15.2452 9.94288 15.167 9.95101 15.0914 9.93642C15.0159 9.92183 14.9463 9.88516 14.8916 9.83104C14.8369 9.77693 14.7994 9.7078 14.784 9.6324C14.7686 9.557 14.7758 9.47872 14.8049 9.40745C14.8339 9.33618 14.8835 9.27513 14.9472 9.23202C15.011 9.1889 15.0861 9.16566 15.163 9.16523C15.2141 9.16494 15.2648 9.17472 15.3121 9.19401C15.3594 9.21331 15.4025 9.24173 15.4388 9.27767C15.4752 9.3136 15.5041 9.35634 15.5239 9.40344C15.5437 9.45054 15.5541 9.50108 15.5543 9.55218Z" fill="white" fill-opacity="0.6"/>
<path d="M10.0826 5.09131C10.55 5.12391 12.2435 5.67391 12.6804 5.97391C12.3174 4.91739 11.0913 4.77826 10.0826 5.09131Z" fill="#58595B" fill-opacity="0.6"/>
<path d="M10.5283 7.76087C10.5287 8.11653 10.4236 8.46434 10.2263 8.76028C10.029 9.05621 9.74842 9.28698 9.41995 9.42339C9.09148 9.5598 8.72992 9.59571 8.38104 9.52659C8.03215 9.45746 7.7116 9.2864 7.45996 9.03506C7.20831 8.78372 7.03687 8.46338 6.96732 8.11458C6.89778 7.76577 6.93325 7.40418 7.06926 7.07554C7.20527 6.7469 7.4357 6.46599 7.7314 6.26835C8.02709 6.07071 8.37477 5.96521 8.73044 5.96521C8.96643 5.96493 9.20017 6.01116 9.41828 6.10127C9.63639 6.19139 9.83459 6.32361 10.0016 6.49038C10.1685 6.65715 10.301 6.85519 10.3914 7.07319C10.4818 7.29119 10.5283 7.52487 10.5283 7.76087Z" fill="white" fill-opacity="0.6"/>
<path d="M9.99566 7.7761C9.99566 8.02591 9.92159 8.27011 9.7828 8.47782C9.64402 8.68552 9.44675 8.84741 9.21596 8.94301C8.98517 9.03861 8.73122 9.06361 8.48622 9.01488C8.24121 8.96614 8.01615 8.84585 7.83951 8.66921C7.66287 8.49257 7.54258 8.26752 7.49384 8.02251C7.44511 7.77751 7.47012 7.52355 7.56572 7.29276C7.66132 7.06197 7.82321 6.86471 8.03091 6.72592C8.23862 6.58714 8.48281 6.51306 8.73262 6.51306C9.0676 6.51306 9.38886 6.64613 9.62573 6.883C9.86259 7.11987 9.99566 7.44112 9.99566 7.7761Z" fill="#58595B" fill-opacity="0.6"/>
<path d="M17.0109 10.3456C15.5543 11.3717 13.9 12.15 11.55 12.15C10.45 12.15 10.2283 10.9848 9.50217 11.5543C9.12826 11.85 7.80434 12.5109 6.75652 12.4609C5.70869 12.4109 4.00652 11.7956 3.53261 9.55652C3.34565 11.7956 3.24782 13.4457 2.40869 15.337C4.0826 18.0174 8.07609 20.087 11.7 19.1957C11.3109 16.4761 13.687 13.813 15.0261 12.4565C15.5348 11.9413 16.5043 11.0978 17.013 10.3522L17.0109 10.3456Z" fill="black" fill-opacity="0.6"/>
<path d="M16.9522 10.4109C16.4887 10.8103 15.9713 11.1426 15.4152 11.3978C14.8608 11.6609 14.2829 11.8713 13.6891 12.0261C13.0924 12.2038 12.4695 12.2773 11.8478 12.2435C11.2129 12.2177 10.6111 11.9529 10.1631 11.5022L10.1826 11.4804C10.69 11.7872 11.2724 11.9474 11.8652 11.9435C12.4587 11.9615 13.0523 11.9127 13.6348 11.7978C14.2233 11.675 14.799 11.4975 15.3544 11.2674C15.9188 11.0534 16.4502 10.7607 16.9326 10.3978L16.9522 10.4109Z" fill="#58595B" fill-opacity="0.6"/>
</g>
<defs>
<clipPath id="clip0_186_1049">
<rect width="20" height="20" fill="white"/>
</clipPath>
</defs>
</svg>
