<svg width="342" height="340" viewBox="0 0 342 340" fill="none" xmlns="http://www.w3.org/2000/svg">
<ellipse cx="171.028" cy="170" rx="170.343" ry="170" fill="url(#paint0_linear_241_933)"/>
<ellipse cx="171.028" cy="170" rx="150.25" ry="149.947" fill="url(#paint1_linear_241_933)"/>
<path d="M302.518 170C302.518 242.471 243.65 301.223 171.028 301.223C98.4066 301.223 39.5386 242.471 39.5386 170C39.5386 97.5292 98.4066 38.7768 171.028 38.7768C243.65 38.7768 302.518 97.5292 302.518 170Z" stroke="url(#paint2_linear_241_933)" stroke-width="1.93"/>
<rect x="137.782" y="226.355" width="33.5887" height="33.5887" fill="white" fill-opacity="0.64"/>
<rect x="171.371" y="226.355" width="33.5887" height="33.5887" fill="white"/>
<rect x="171.371" y="192.766" width="33.5887" height="33.5887" fill="white" fill-opacity="0.6"/>
<rect x="204.636" y="192.766" width="33.5887" height="33.5887" fill="white" fill-opacity="0.8"/>
<rect x="104.193" y="192.68" width="33.5887" height="33.5887" fill="white" fill-opacity="0.94"/>
<rect x="204.636" y="159.177" width="33.5887" height="33.5887" fill="white"/>
<rect x="104.193" y="159.092" width="33.5887" height="33.5887" fill="white"/>
<rect x="204.636" y="125.503" width="33.5887" height="34.59" fill="white"/>
<rect x="204.636" y="92" width="33.5887" height="33.5887" fill="white"/>
<rect x="104.193" y="125.503" width="33.5887" height="33.5887" fill="white" fill-opacity="0.8"/>
<rect x="104.193" y="92" width="33.5887" height="33.5887" fill="white" fill-opacity="0.8"/>
<defs>
<linearGradient id="paint0_linear_241_933" x1="247.227" y1="246.045" x2="95.1365" y2="93.6485" gradientUnits="userSpaceOnUse">
<stop offset="0.932292" stop-color="#7CFFF9"/>
</linearGradient>
<linearGradient id="paint1_linear_241_933" x1="152.123" y1="304.104" x2="155.663" y2="3.42395" gradientUnits="userSpaceOnUse">
<stop offset="0.0758875" stop-color="#039790"/>
</linearGradient>
<linearGradient id="paint2_linear_241_933" x1="230.278" y1="229.131" x2="112.017" y2="110.631" gradientUnits="userSpaceOnUse">
<stop stop-color="#55FFF8"/>
</linearGradient>
</defs>
</svg>
