<svg width="341" height="340" viewBox="0 0 341 340" fill="none" xmlns="http://www.w3.org/2000/svg">
<ellipse cx="170.343" cy="170" rx="170.343" ry="170" fill="url(#paint0_linear_223_1039)"/>
<ellipse cx="170.342" cy="170" rx="150.25" ry="149.947" fill="black"/>
<path d="M301.832 170C301.832 242.471 242.964 301.223 170.343 301.223C97.7212 301.223 38.8531 242.471 38.8531 170C38.8531 97.5292 97.7212 38.7768 170.343 38.7768C242.964 38.7768 301.832 97.5292 301.832 170Z" stroke="url(#paint1_linear_223_1039)" stroke-opacity="0.5" stroke-width="1.93"/>
<g style="mix-blend-mode:screen">
<path d="M20.0929 170C20.0929 130.232 35.9227 92.0919 64.1 63.9713C92.2772 35.8507 130.494 20.0527 170.342 20.0527C210.191 20.0527 248.408 35.8507 276.585 63.9713C304.762 92.0918 320.592 130.232 320.592 170L170.343 170L20.0929 170Z" fill="url(#paint2_linear_223_1039)"/>
</g>
<rect x="137.097" y="226.355" width="33.5887" height="33.5887" fill="#8DFCF7"/>
<rect x="170.685" y="226.355" width="33.5887" height="33.5887" fill="#01E8DE"/>
<rect x="170.685" y="192.766" width="33.5887" height="33.5887" fill="#21CECB"/>
<rect x="203.95" y="192.766" width="33.5887" height="33.5887" fill="#01E8DE"/>
<rect x="103.508" y="192.68" width="33.5887" height="33.5887" fill="#1AB4B1"/>
<rect x="203.95" y="159.177" width="33.5887" height="33.5887" fill="#01E8DE"/>
<rect x="103.508" y="159.092" width="33.5887" height="33.5887" fill="#4CFFF7"/>
<rect x="203.95" y="125.503" width="33.5887" height="34.59" fill="#4CFFF7"/>
<rect x="203.95" y="92" width="33.5887" height="33.5887" fill="#4CFFF7" fill-opacity="0.8"/>
<rect x="103.508" y="125.503" width="33.5887" height="33.5887" fill="#01E8DE"/>
<rect x="103.508" y="92" width="33.5887" height="33.5887" fill="#01E8DE"/>
<defs>
<linearGradient id="paint0_linear_223_1039" x1="246.541" y1="246.045" x2="94.4511" y2="93.6485" gradientUnits="userSpaceOnUse">
<stop stop-color="#59FFF8"/>
<stop offset="0.932292" stop-color="#7CFFF9"/>
</linearGradient>
<linearGradient id="paint1_linear_223_1039" x1="229.593" y1="229.131" x2="75.8422" y2="59.1903" gradientUnits="userSpaceOnUse">
<stop stop-color="#7DFFFA"/>
<stop offset="0.9999" stop-color="#5AFFF8"/>
<stop offset="1" stop-color="white" stop-opacity="0.4"/>
</linearGradient>
<linearGradient id="paint2_linear_223_1039" x1="123.942" y1="178.868" x2="94.5704" y2="27.9863" gradientUnits="userSpaceOnUse">
<stop offset="0.00382185" stop-opacity="0"/>
<stop offset="1" stop-color="#272727"/>
</linearGradient>
</defs>
</svg>
